HIERARCHY
ROOT root
{
	OFFSET	0	13.1	24.9
	CHANNELS 6  Xposition Yposition Zposition Xrotation Yrotation Zrotation
	JOINT spine_1
	{
		OFFSET	0	9.99999	0
		CHANNELS 3  Xrotation Yrotation Zrotation
		JOINT spine_2
		{
			OFFSET	0	112	-10
			CHANNELS 3  Xrotation Yrotation Zrotation
			JOINT spine_3
			{
				OFFSET	0	206.5	19.3
				CHANNELS 3  Xrotation Yrotation Zrotation
				JOINT spine_4
				{
					OFFSET	0	110.4	14.6
					CHANNELS 3  Xrotation Yrotation Zrotation
					JOINT neck_1
					{
						OFFSET	0	71.8	-50.3
						CHANNELS 3  Xrotation Yrotation Zrotation
						JOINT neck_2
						{
							OFFSET	0	86.2	-25.8
							CHANNELS 3  Xrotation Yrotation Zrotation
							JOINT head_ee
							{
								OFFSET	0	179.8	-8.7
								CHANNELS 3  Xrotation Yrotation Zrotation
								End Site
								{
									OFFSET	1	0	0
								}
							}
						}
					}
					JOINT left_clavicle
					{
						OFFSET	-43.2	22.4	-70.8
						CHANNELS 3  Xrotation Yrotation Zrotation
						JOINT left_shoulder
						{
							OFFSET	-93.9	-5.79999	48.7
							CHANNELS 3  Xrotation Yrotation Zrotation
							JOINT left_elbow
							{
								OFFSET	-291.4	-30.8	15.2
								CHANNELS 3  Xrotation Yrotation Zrotation
								JOINT left_lowarm_twist
								{
									OFFSET	-110.7	-3.89999	13.6
									CHANNELS 3  Xrotation Yrotation Zrotation
									JOINT left_hand
									{
										OFFSET	-110.7	-3.89999	13.6
										CHANNELS 3  Xrotation Yrotation Zrotation
										JOINT left_ee
										{
											OFFSET	-80.8	-5.10001	12.1
											CHANNELS 3  Xrotation Yrotation Zrotation
											End Site
											{
												OFFSET	1	0	0
											}
										}
									}
								}
							}
						}
					}
					JOINT right_clavicle
					{
						OFFSET	43.2	22.4	-70.8
						CHANNELS 3  Xrotation Yrotation Zrotation
						JOINT right_shoulder
						{
							OFFSET	93.9	-5.79999	48.7
							CHANNELS 3  Xrotation Yrotation Zrotation
							JOINT right_elbow
							{
								OFFSET	291.4	-30.8	15.2
								CHANNELS 3  Xrotation Yrotation Zrotation
								JOINT right_lowarm_twist
								{
									OFFSET	110.7	-3.89999	13.6
									CHANNELS 3  Xrotation Yrotation Zrotation
									JOINT right_hand
									{
										OFFSET	110.7	-3.89999	13.6
										CHANNELS 3  Xrotation Yrotation Zrotation
										JOINT right_ee
										{
											OFFSET	80.8	-5.10001	12.1
											CHANNELS 3  Xrotation Yrotation Zrotation
											End Site
											{
												OFFSET	1	0	0
											}
										}
									}
								}
							}
						}
					}
				}
			}
		}
	}
	JOINT left_hip
	{
		OFFSET	-82.8	-127.5	0.300001
		CHANNELS 3  Xrotation Yrotation Zrotation
		JOINT left_knee
		{
			OFFSET	-28.2	-396.7	2.2
			CHANNELS 3  Xrotation Yrotation Zrotation
			JOINT left_ankle
			{
				OFFSET	-11.7	-411.3	35.4
				CHANNELS 3  Xrotation Yrotation Zrotation
				JOINT left_toes
				{
					OFFSET	0	-60	-88.6
					CHANNELS 3  Xrotation Yrotation Zrotation
					JOINT left_foot_ee
					{
						OFFSET	-22.5	-16.5	-42.2
						CHANNELS 3  Xrotation Yrotation Zrotation
						End Site
						{
							OFFSET	1	0	0
						}
					}
				}
			}
		}
	}
	JOINT right_hip
	{
		OFFSET	82.8	-127.5	0.300001
		CHANNELS 3  Xrotation Yrotation Zrotation
		JOINT right_knee
		{
			OFFSET	28.2	-396.7	2.2
			CHANNELS 3  Xrotation Yrotation Zrotation
			JOINT right_ankle
			{
				OFFSET	11.7	-411.3	35.4
				CHANNELS 3  Xrotation Yrotation Zrotation
				JOINT right_toes
				{
					OFFSET	0	-60	-88.6
					CHANNELS 3  Xrotation Yrotation Zrotation
					JOINT right_foot_ee
					{
						OFFSET	22.5	-16.5	-42.2
						CHANNELS 3  Xrotation Yrotation Zrotation
						End Site
						{
							OFFSET	1	0	0
						}
					}
				}
			}
		}
	}
}
MOTION
Frames: 16
Frame Time: 0.02
2907.97139745 682.151 -1846.47727456 -5.31916472788 33.0033644021 -2.48857770571 4.99789 -0.174064 1.93694 4.99993 -0.296941 1.92195 4.98827 -0.533912 1.87005 4.98347 -0.231931 1.93087 -22.0591 10.8541 0.745727 -22.802 20.5822 5.79053 -0.0 0.0 -0.0 -0.799815 8.43896 -0.406621 -11.1685 -30.2103 61.3122 1.04215 -27.3045 0.253137 -1.99651 -0.0746104 0.244018 -2.49499 11.0592 -11.3894 -0.0 0.0 -0.0 7.08629 2.35596 -13.7556 -32.082 25.3529 -63.1729 0.474417 13.2254 -0.054999 -0.566501 0.0203043 -0.0694972 -0.095512 -12.3778 -4.49515 0.0 0.0 0.0 9.9521 -2.02201 9.03612 -10.1278 0.282688 1.52657 -20.1356 8.61137 3.02719 -14.6276 0.0 0.0 -0.0 0.0 -0.0 19.9944 27.0419 5.89165 -52.6824 1.46372 -7.67167 -23.6395 -12.1679 -3.56251 -5.86376 0.0 0.0 0.0 0.0 0.0 
2889.56207955 690.406 -1827.84163325 -6.88064209921 35.049028279 -1.38314729591 4.95678 0.0581699 2.15701 4.95937 -0.0791714 2.15634 4.95423 -0.348186 2.12953 4.9479 -0.00757866 2.15778 -23.9082 9.99958 1.94752 -24.5619 18.4277 6.79994 -0.0 0.0 -0.0 0.275597 6.72998 1.29436 -9.94119 -29.9975 59.9948 1.02279 -26.869 0.244321 -1.74982 -0.064931 0.214008 -2.30684 9.49721 -10.9495 -0.0 0.0 -0.0 7.21454 1.56939 -14.0188 -32.3797 25.3683 -62.5735 0.477207 13.3004 -0.0556389 1.03989 -0.0354774 0.128073 -0.0455871 -11.4112 -4.42194 0.0 0.0 0.0 7.98519 7.77637 8.64016 -6.7701 0.218961 1.01534 -18.9804 3.39637 2.86462 -15.6762 0.0 0.0 -0.0 0.0 -0.0 24.5255 24.4214 6.42333 -52.3764 1.43537 -7.634 -24.1577 -10.0229 -3.63468 -8.65046 0.0 0.0 0.0 0.0 0.0 
2881.9212348 693.117 -1824.31897185 -7.84291262786 35.6693463629 -0.832403928162 4.95192 0.282016 2.19754 4.9546 0.141644 2.21102 4.9578 -0.13565 2.2114 4.95104 0.215214 2.20508 -25.8957 8.2403 2.37457 -26.3613 14.9086 6.5721 -0.0 0.0 -0.0 0.964175 5.06674 2.36717 -8.62015 -29.8058 58.0718 1.07091 -27.9451 0.26647 -2.13399 -0.0800608 0.260725 -2.29552 6.6621 -12.2818 -0.0 0.0 -0.0 7.12155 -0.0958796 -13.8331 -32.58 25.149 -61.7341 0.493143 13.728 -0.059363 3.77591 -0.117651 0.467861 0.247951 -8.36256 -5.08338 0.0 0.0 0.0 7.50422 13.9739 8.97982 -4.57844 0.161245 0.683965 -22.3384 -1.98136 3.41883 -16.6893 0.0 0.0 -0.0 0.0 -0.0 26.6981 20.7808 6.54975 -51.002 1.31055 -7.463 -22.2066 -10.9409 -3.34266 -11.37 0.0 0.0 0.0 0.0 0.0 
2837.92323668 690.037 -1828.6790712 -9.29239788824 33.7237446384 -0.108815943545 4.71384 0.520896 2.37672 4.71691 0.368649 2.40502 4.72997 0.055852 2.43246 4.72198 0.439201 2.39315 -22.9166 4.87138 -0.0946809 -23.0759 9.44341 2.20796 -0.0 0.0 -0.0 3.28053 0.370017 6.34632 -6.25248 -21.1749 52.8352 1.38056 -34.366 0.426926 -3.00834 -0.115663 0.366671 -2.15674 -0.536633 -14.8165 -0.0 0.0 -0.0 7.41731 0.270769 -14.4235 -34.8596 23.7844 -60.0423 0.454149 12.6791 -0.050456 8.5212 -0.221379 1.06498 0.621073 -5.42535 -6.35175 0.0 0.0 0.0 2.03483 41.9129 10.082 -3.29921 0.12171 0.491627 -21.0751 -22.2489 3.69514 -18.0732 0.0 0.0 -0.0 0.0 -0.0 35.0318 7.47524 9.57813 -44.5687 0.782705 -6.62567 -11.0873 -3.92473 -1.66102 -20.062 0.0 0.0 0.0 0.0 0.0 
2797.19830703 681.423 -1842.93317553 -9.54923079238 34.0755329698 0.109592473798 4.56016 0.587088 2.46746 4.56345 0.428938 2.49979 4.57972 0.0968409 2.53445 4.5711 0.49577 2.48741 -16.2068 4.17876 -2.58186 -16.2793 9.49226 -0.950679 -0.0 0.0 -0.0 3.93655 1.88257 7.68505 -5.08488 -16.2627 50.5756 1.93322 -43.7564 0.776357 -4.00951 -0.158412 0.48731 -1.91417 -1.76706 -13.7142 -0.0 0.0 -0.0 7.07122 0.570027 -13.7336 -34.4673 23.2664 -61.1199 0.388343 10.8894 -0.0370151 12.3178 -0.268555 1.54755 0.64124 -5.32066 -6.44313 0.0 0.0 0.0 0.101159 46.4222 8.68477 -4.57729 0.161212 0.683792 -21.3105 -29.497 4.07745 -17.3489 0.0 0.0 -0.0 0.0 -0.0 38.3831 1.9508 10.1747 -39.2108 0.417324 -5.8875 -9.01713 -1.60403 -1.35276 -20.9193 0.0 0.0 0.0 0.0 0.0 
2796.47918948 681.423 -1841.35150756 -9.57613536023 34.3105880138 0.157466698823 4.56016 0.587088 2.46746 4.56345 0.428938 2.49979 4.57972 0.0968409 2.53445 4.5711 0.49577 2.48741 -16.2068 4.17876 -2.58186 -16.2793 9.49226 -0.950679 -0.0 0.0 -0.0 3.93655 1.88257 7.68505 -5.08488 -16.2627 50.5756 1.93322 -43.7564 0.776357 -4.00951 -0.158412 0.48731 -1.91417 -1.76706 -13.7142 -0.0 0.0 -0.0 7.07122 0.570027 -13.7336 -34.4673 23.2664 -61.1199 0.388343 10.8894 -0.0370151 12.3178 -0.268555 1.54755 0.64124 -5.32066 -6.44313 0.0 0.0 0.0 0.101159 46.4222 8.68477 -4.57729 0.161212 0.683792 -21.3105 -29.497 4.07745 -17.3489 0.0 0.0 -0.0 0.0 -0.0 38.3831 1.9508 10.1747 -39.2108 0.417324 -5.8875 -9.01713 -1.60403 -1.35276 -20.9193 0.0 0.0 0.0 0.0 0.0 
2769.68697555 675.477 -1848.36963762 -11.4225855112 34.1318849267 2.32225623141 4.49012 0.3837 2.40129 4.4933 0.230168 2.42083 4.50074 -0.0933653 2.42995 4.49262 0.291457 2.41422 -14.0237 3.31241 -5.47742 -14.0088 9.66195 -4.16408 -0.0 0.0 -0.0 4.49877 2.31087 8.77328 -1.68428 -12.8416 49.1075 2.41053 -50.048 1.12541 -1.23103 -0.0449982 0.150764 -2.05415 2.14033 -12.8426 -0.0 0.0 -0.0 6.70309 2.13862 -12.985 -34.6939 22.582 -61.5595 0.479926 13.3735 -0.0562662 17.3663 -0.281617 2.19203 0.76232 -5.02849 -7.12751 0.0 0.0 0.0 -0.731428 50.2637 8.67668 -5.75385 0.193776 0.861416 -20.7843 -29.5642 3.98044 -17.7226 0.0 0.0 -0.0 0.0 -0.0 43.4708 -2.32826 7.44228 -29.2534 -0.0719389 -4.44025 -5.44499 -0.168726 -0.81476 -20.5719 0.0 0.0 0.0 0.0 0.0 
2759.8392224 672.364 -1856.37302257 -12.7473969537 33.6377353649 3.65161039275 4.44027 0.199536 2.22346 4.44302 0.0576827 2.23165 4.44333 -0.241541 2.21929 4.43648 0.111896 2.22959 -12.6058 2.96699 -5.81364 -12.5594 9.32212 -4.71135 -0.0 0.0 -0.0 4.82812 2.06045 9.39346 -0.343525 -13.3938 49.4798 2.48423 -50.8945 1.18225 -4.46003 -0.178336 0.541353 -1.47152 0.592831 -9.60684 -0.0 0.0 -0.0 6.77297 3.69629 -13.1019 -35.8437 23.4325 -61.4721 0.511874 14.2286 -0.0638876 21.435 -0.250826 2.7107 1.40815 -3.32695 -10.7705 0.0 0.0 0.0 2.71164 51.2154 6.15363 -8.5493 0.256462 1.28578 -20.6337 -29.5314 3.94978 -14.7225 0.0 0.0 -0.0 0.0 -0.0 44.0861 -3.04558 6.64396 -24.7657 -0.208712 -3.76529 -5.02596 1.28776 -0.754544 -18.5137 0.0 0.0 0.0 0.0 0.0 
2761.10754044 672.364 -1859.17597768 -12.691318138 33.2616527874 3.54987230554 4.44027 0.199536 2.22346 4.44302 0.0576827 2.23165 4.44333 -0.241541 2.21929 4.43648 0.111896 2.22959 -12.6058 2.96699 -5.81364 -12.5594 9.32212 -4.71135 -0.0 0.0 -0.0 4.82812 2.06045 9.39346 -0.343525 -13.3938 49.4798 2.48423 -50.8945 1.18225 -4.46003 -0.178336 0.541353 -1.47152 0.592831 -9.60684 -0.0 0.0 -0.0 6.77297 3.69629 -13.1019 -35.8437 23.4325 -61.4721 0.511874 14.2286 -0.0638876 21.435 -0.250826 2.7107 1.40815 -3.32695 -10.7705 0.0 0.0 0.0 2.71164 51.2154 6.15363 -8.5493 0.256462 1.28578 -20.6337 -29.5314 3.94978 -14.7225 0.0 0.0 -0.0 0.0 -0.0 44.0861 -3.04558 6.64396 -24.7657 -0.208712 -3.76529 -5.02596 1.28776 -0.754544 -18.5137 0.0 0.0 0.0 0.0 0.0 
2729.95618412 665.133 -1884.30001709 -15.1158504701 36.1749095955 6.53775927472 4.19317 0.441792 1.96457 4.19526 0.315912 1.98868 4.2049 0.038685 2.01324 4.19942 0.35609 1.98189 -10.6586 1.00442 -2.81126 -10.6407 3.76685 -2.46829 -0.0 0.0 -0.0 3.97699 1.95323 7.76533 3.69168 -13.6475 52.5584 2.69052 -53.1099 1.34485 1.66246 0.0556016 -0.205045 -1.65185 5.53588 -8.53996 -0.0 0.0 -0.0 7.47253 5.51297 -14.5082 -34.4982 21.2919 -63.9317 0.469943 13.105 -0.0539798 32.5949 0.0211128 4.1081 1.23075 -3.62298 -9.69406 0.0 0.0 0.0 3.96304 48.0978 3.68856 -8.93852 0.263545 1.34508 -21.0011 -28.0922 3.94338 -16.661 0.0 0.0 -0.0 0.0 -0.0 44.9892 -5.91857 3.89874 -7.62848 -0.238102 -1.14567 -9.32692 10.1059 -1.46742 -11.1557 0.0 0.0 0.0 0.0 0.0 
2732.43170113 665.133 -1889.37318297 -14.9934438447 35.5453096216 6.32880918047 4.19317 0.441792 1.96457 4.19526 0.315912 1.98868 4.2049 0.038685 2.01324 4.19942 0.35609 1.98189 -10.6586 1.00442 -2.81126 -10.6407 3.76685 -2.46829 -0.0 0.0 -0.0 3.97699 1.95323 7.76533 3.69168 -13.6475 52.5584 2.69052 -53.1099 1.34485 1.66246 0.0556016 -0.205045 -1.65185 5.53588 -8.53996 -0.0 0.0 -0.0 7.47253 5.51297 -14.5082 -34.4982 21.2919 -63.9317 0.469943 13.105 -0.0539798 32.5949 0.0211128 4.1081 1.23075 -3.62298 -9.69406 0.0 0.0 0.0 3.96304 48.0978 3.68856 -8.93852 0.263545 1.34508 -21.0011 -28.0922 3.94338 -16.661 0.0 0.0 -0.0 0.0 -0.0 44.9892 -5.91857 3.89874 -7.62848 -0.238102 -1.14567 -9.32692 10.1059 -1.46742 -11.1557 0.0 0.0 0.0 0.0 0.0 
2722.41089589 664.104 -1902.15638546 -14.9658364215 36.8808354033 7.43785900837 4.14884 0.303434 1.94465 4.15092 0.179101 1.96001 4.15575 -0.0946326 1.96589 4.15043 0.216971 1.95618 -10.2004 0.842438 -2.2011 -10.189 3.06825 -1.93121 -0.0 0.0 -0.0 3.01524 2.66912 5.98238 4.1609 -14.0069 53.8604 2.79943 -54.1943 1.43258 3.55157 0.111525 -0.439859 -1.33082 4.88198 -6.71504 -0.0 0.0 -0.0 7.60513 6.17714 -14.7725 -34.506 21.4375 -65.3651 0.447634 12.5029 -0.0490357 36.9402 0.199753 4.63392 1.25324 -3.61813 -9.843 0.0 0.0 0.0 4.16959 50.2726 1.22243 -8.93285 0.263444 1.34422 -21.2384 -29.1005 4.04175 -15.4361 0.0 0.0 -0.0 0.0 -0.0 44.4667 -6.21743 2.2152 -7.90168 -0.243785 -1.18721 -4.67006 12.8599 -0.74158 -7.64022 0.0 0.0 0.0 0.0 0.0 
2708.85470674 662.667 -1916.11855063 -14.9703022907 37.5437353298 8.39317770048 3.99662 0.342867 1.89481 3.99859 0.221623 1.91278 4.00485 -0.0510131 1.9249 3.99977 0.253572 1.90881 -9.78087 1.26796 -2.19349 -9.77048 3.87511 -1.83207 -0.0 0.0 -0.0 2.76351 2.95119 5.52716 4.08691 -14.5732 55.1121 2.73698 -53.5793 1.38212 4.3909 0.13388 -0.544742 -1.64267 6.50855 -8.02574 -0.0 0.0 -0.0 7.98262 5.56294 -15.5685 -34.3712 22.9503 -65.1034 0.411342 11.5175 -0.0414838 38.3155 0.264557 4.79739 1.18304 -2.85118 -9.0696 0.0 0.0 0.0 5.75298 49.2786 -1.85748 -11.9813 0.305 1.81008 -19.5899 -29.7437 3.76045 -12.3119 0.0 0.0 -0.0 0.0 -0.0 44.2983 -6.91476 0.655135 -7.37977 -0.232757 -1.10788 -2.77496 18.5427 -0.458859 -5.54794 0.0 0.0 0.0 0.0 0.0 
2693.52716706 659.277 -1932.30384597 -15.0299668642 38.792693916 8.92798765362 3.98563 0.297875 1.86822 3.98755 0.178413 1.88338 3.99231 -0.0900691 1.88966 3.98738 0.209444 1.88018 -10.0198 0.551262 -4.48555 -9.96591 4.07054 -4.23878 -0.0 0.0 -0.0 2.44071 2.95096 4.92161 3.84209 -14.6186 55.8366 2.6848 -53.0513 1.34028 4.16208 0.127938 -0.516117 -0.999486 4.4497 -4.71927 -0.0 0.0 -0.0 7.96481 6.03712 -15.5258 -33.8142 21.9004 -67.0006 0.407163 11.4036 -0.0406533 43.0443 0.517005 5.34685 0.668232 -4.48316 -6.28707 0.0 0.0 0.0 4.60182 48.341 -2.80979 -11.3378 0.298293 1.71157 -20.5141 -30.1283 3.95957 -10.9029 0.0 0.0 -0.0 0.0 -0.0 44.3633 -7.68529 -0.34643 -7.25981 -0.23012 -1.08966 -2.06239 22.3916 -0.353343 -2.64259 0.0 0.0 0.0 0.0 0.0 
2676.0452933 656.425 -1944.51242159 -15.0498741677 39.17476083 9.51278438764 3.78627 0.305223 1.81956 3.78809 0.18884 1.83529 3.7932 -0.0793381 1.84327 3.78852 0.212718 1.83268 -10.8639 0.429796 -4.554 -10.8096 3.82962 -4.30199 -0.0 0.0 -0.0 2.10558 4.11921 4.38435 2.17627 -16.1541 56.0615 2.80626 -54.2604 1.43811 5.86831 0.169487 -0.730106 -0.014997 0.978798 0.312109 -0.0 0.0 -0.0 8.45621 5.9265 -16.5573 -34.2281 22.9267 -65.8472 0.405933 11.37 -0.0404103 45.8578 0.688479 5.66337 0.0870613 -6.73503 -3.37651 0.0 0.0 0.0 5.88571 47.2235 -5.40957 -14.2807 0.319916 2.16254 -20.4143 -30.5036 3.96126 -7.11407 0.0 0.0 -0.0 0.0 -0.0 43.6845 -8.91564 -1.15593 -6.8262 -0.220272 -1.02385 -2.4736 24.8339 -0.435743 -2.03657 0.0 0.0 0.0 0.0 0.0 
2656.2580595 653.069 -1959.88275104 -14.9777973719 39.4199752134 9.58594728497 3.66238 0.335242 1.74595 3.66405 0.223481 1.76374 3.67012 -0.0384848 1.77742 3.6658 0.242664 1.7612 -9.32373 -0.036381 -7.09862 -9.18188 4.8137 -6.97688 -0.0 0.0 -0.0 1.68154 4.6304 3.64321 1.51114 -15.9248 57.0149 2.69298 -53.1349 1.34682 5.46313 0.160197 -0.679181 0.0105064 -0.40768 -0.101681 -0.0 0.0 -0.0 8.50266 3.98967 -16.6564 -33.367 22.76 -64.8507 0.426866 11.9399 -0.0446394 49.0041 0.898442 6.007 0.325165 -6.10211 -4.67693 0.0 0.0 0.0 5.4472 45.469 -5.9874 -16.1466 0.321618 2.44881 -19.086 -29.6208 3.65707 -5.40215 0.0 0.0 -0.0 0.0 -0.0 43.7246 -8.02778 -1.31886 -10.4575 -0.287327 -1.57694 1.6223 24.5365 0.281568 1.72137 -0.0 -0.0 0.0 0.0 0.0 
